<?xml version="1.0" encoding="UTF-8" standalone="no"?>
<svg xmlns="http://www.w3.org/2000/svg" width="26" height="260" viewBox="0 0 26 260" >
  <g id="sprite" fill="#ffffff">
    <path
       id="zoomIn"
       d="m 12.5,8.99999 c -0.277,0 -0.5,0.223 -0.5,0.5 l 0,2.50002 -2.5,0 c -0.277,0 -0.5,0.223 -0.5,0.5 l 0,1 c 0,0.277 0.223,0.5 0.5,0.5 l 2.5,0 0,2.5 c 0,0.277 0.223,0.5 0.5,0.5 l 1,0 c 0.277,0 0.5,-0.223 0.5,-0.5 l 0,-2.5 2.5,0 c 0.277,0 0.5,-0.223 0.5,-0.5 l 0,-1 c 0,-0.277 -0.223,-0.5 -0.5,-0.5 l -2.5,0 0,-2.50002 c 0,-0.277 -0.223,-0.5 -0.5,-0.5 z" />
    <path
       id="zoomOut"
       d="M 9.5,38 C 9.223,38 9,38.223 9,38.5 l 0,1 C 9,39.777 9.223,40 9.5,40 l 7,0 c 0.277,0 0.5,-0.223 0.5,-0.5 l 0,-1 C 17,38.223 16.777,38 16.5,38 Z" />
    <path
       id="close"
       d="m 10,61 -1,1 3,3 -3,3 1,1 3,-3 3,3 1,-1 -3,-3 3,-3 -1,-1 -3,3 z" />
    <path
       id="info"
       d="m 13,83.99999 c -3.866,0 -7,3.134 -7,7.00002 0,3.866 3.134,7 7,7 3.8659,0 7,-3.134 7,-7 0,-3.86602 -3.1341,-7.00002 -7,-7.00002 z m -0.5,3 1,0 c 0.277,0 0.5,0.223 0.5,0.5 l 0,1 c 0,0.27702 -0.223,0.50002 -0.5,0.50002 l -1,0 c -0.277,0 -0.5,-0.223 -0.5,-0.50002 l 0,-1 c 0,-0.277 0.223,-0.5 0.5,-0.5 z m 0,3.00002 1,0 c 0.277,0 0.5,0.223 0.5,0.5 l 0,4 c 0,0.277 -0.223,0.5 -0.5,0.5 l -1,0 c -0.277,0 -0.5,-0.223 -0.5,-0.5 l 0,-4 c 0,-0.277 0.223,-0.5 0.5,-0.5 z" />
    <path
       id="layers"
       d="m 13,110.96875 c -0.1012,-5e-4 -0.19265,0.0145 -0.28125,0.0625 L 6,113 l 0,1 6.71875,1.9375 C 12.80675,115.9855 12.8995,116 13,116 c 0.1001,0 0.19325,-0.0145 0.28125,-0.0625 L 20,114 l 0,-1 -6.71875,-1.96875 c -0.088,-0.048 -0.18155,-0.0625 -0.28125,-0.0625 z M 6,118 l 6.71875,1.9375 C 12.80675,119.9855 12.8995,120 13,120 c 0.1001,0 0.19325,-0.0145 0.28125,-0.0625 L 20,118 l 0,-2 -6.71875,1.9375 C 13.19325,117.9855 13.1001,118 13,118 c -0.1005,0 -0.19325,-0.0145 -0.28125,-0.0625 L 6,116 Z m 0,4 6.71875,1.9375 C 12.80675,123.9855 12.8995,124 13,124 c 0.1001,0 0.19325,-0.0145 0.28125,-0.0625 L 20,122 l 0,-2 -6.71875,1.9375 C 13.19325,121.9855 13.1001,122 13,122 c -0.1005,0 -0.19325,-0.0145 -0.28125,-0.0625 L 6,120 Z" />
    <path
       id="share"
       d="m 14.3438,136.99999 2.125,2.125 -4.25,4.25002 1.4062,1.4062 4.25,-4.25002 2.125,2.12502 0,-5.65622 z m -6.3438,1 -1,1 0,9.00002 1,1 10,0 1,-1 0,-4 -1,-1 -1,1 0,3 -8,0 0,-7.00002 4,0 1,-1 -1,-1 z" />
    <path
       id="search"
       d="m 11.5,162.99999 c -2.4853,0 -4.5,2.0147 -4.5,4.50002 0,2.4853 2.0147,4.5 4.5,4.5 0.854,0 1.6635,-0.2431 2.3437,-0.6563 l 3.6563,3.6563 1.5,-1.5 -3.6563,-3.6563 c 0.4132,-0.6802 0.6563,-1.4897 0.6563,-2.3437 0,-2.48532 -2.0147,-4.50002 -4.5,-4.50002 z m 0,1.5 c 1.6568,0 3,1.3431 3,3.00002 0,1.6568 -1.3432,3 -3,3 -1.6569,0 -3,-1.3432 -3,-3 0,-1.65692 1.3431,-3.00002 3,-3.00002 z" />
    <path
       id="facebook"
       d="m 7,186.99998 -1,1 0,12 1,1 6.81812,1e-5 0,-5.00001 -1.8245,0 0,-2 1.8245,0 0,-2.09264 c 0,-1.80824 1.10439,-2.79288 2.7175,-2.79288 0.77272,0 1.09654,0.0575 1.29005,0.0832 l 0,1.80232 -0.77851,5.2e-4 C 16.1699,191.0005 16,191.41736 16,192.0291 l 0,1.97088 2.09228,0 -0.2724,2 -1.81988,0 0,5.00001 3,-1e-5 1,-1 0,-12 -1,-1 z" />
    <path
       id="twitter"
       d="m 19.99957,216.12602 c -0.51509,0.22492 -1.06868,0.37693 -1.64967,0.44524 0.59299,-0.34993 1.04838,-0.90408 1.26288,-1.56444 -0.55499,0.32413 -1.16968,0.55945 -1.82397,0.68616 C 17.26502,215.14343 16.51853,214.8 15.69245,214.8 c -1.58627,0 -2.87235,1.26611 -2.87235,2.82775 0,0.22164 0.025,0.43756 0.075,0.64448 -2.38705,-0.11791 -4.50341,-1.24373 -5.91999,-2.95458 -0.24719,0.41763 -0.38889,0.90338 -0.38889,1.42162 0,0.98111 0.50699,1.84658 1.27768,2.35373 -0.4708,-0.015 -0.91369,-0.14191 -1.30088,-0.35363 -3e-4,0.012 -3e-4,0.024 -3e-4,0.035 0,1.37002 0.99008,2.51291 2.30396,2.77274 -0.241,0.065 -0.49469,0.099 -0.75669,0.099 -0.1851,0 -0.36499,-0.018 -0.54029,-0.051 0.36539,1.1234 1.42607,1.94097 2.68295,1.96377 -0.98298,0.75847 -2.22136,1.21061 -3.56713,1.21061 -0.2318,0 -0.46039,-0.013 -0.68509,-0.04 C 7.27151,225.53176 8.78128,226 10.40325,226 c 5.2831,0 8.17205,-4.30888 8.17205,-8.0457 0,-0.12261 0,-0.24462 -0.01,-0.36585 0.56129,-0.39874 1.04818,-0.89668 1.43327,-1.46383" />
    <path
       id="pinterest"
       d="M 13.50024,238.9996 C 9.35822,238.9996 6,242.35751 6,246.49969 c 0,3.07113 1.84674,5.70949 4.48939,6.86948 -0.0211,-0.5237 -0.004,-1.15239 0.13052,-1.7222 0.14421,-0.60892 0.96507,-4.08682 0.96507,-4.08682 0,0 -0.23961,-0.47889 -0.23961,-1.18669 0,-1.11141 0.64421,-1.94155 1.44648,-1.94155 0.68215,0 1.01169,0.51241 1.01169,1.12601 0,0.68581 -0.43735,1.71156 -0.66231,2.66165 -0.18789,0.79559 0.39892,1.44451 1.1838,1.44451 1.42105,0 2.37808,-1.82512 2.37808,-3.98753 0,-1.64383 -1.10715,-2.87415 -3.12081,-2.87415 -2.27506,0 -3.69243,1.69664 -3.69243,3.59178 0,0.6534 0.19268,1.11426 0.49445,1.47102 0.13874,0.1639 0.15803,0.22983 0.10778,0.418 -0.0359,0.13804 -0.11858,0.47026 -0.15277,0.60191 -0.05,0.18998 -0.20384,0.25786 -0.37553,0.18774 -1.04789,-0.4278 -1.53596,-1.5754 -1.53596,-2.86536 0,-2.13055 1.79685,-4.68521 5.36034,-4.68521 2.86349,0 4.74808,2.0721 4.74808,4.29635 0,2.94222 -1.63569,5.14028 -4.04684,5.14028 -0.8097,0 -1.57134,-0.43774 -1.83228,-0.9349 0,0 -0.43543,1.72808 -0.52766,2.06171 -0.15897,0.57829 -0.47026,1.1562 -0.75486,1.60673 0.67461,0.19909 1.3871,0.30755 2.12562,0.30755 4.1417,0 7.49977,-3.35795 7.49977,-7.50031 0,-4.14218 -3.35807,-7.50009 -7.49977,-7.50009" />
  </g>
</svg>
