<?xml version="1.0" encoding="UTF-8" standalone="no"?>
<!-- Created with Inkscape (http://www.inkscape.org/) -->

<svg
   xmlns:dc="http://purl.org/dc/elements/1.1/"
   xmlns:cc="http://creativecommons.org/ns#"
   xmlns:rdf="http://www.w3.org/1999/02/22-rdf-syntax-ns#"
   xmlns:svg="http://www.w3.org/2000/svg"
   xmlns="http://www.w3.org/2000/svg"
   xmlns:sodipodi="http://sodipodi.sourceforge.net/DTD/sodipodi-0.dtd"
   xmlns:inkscape="http://www.inkscape.org/namespaces/inkscape"
   width="20"
   height="20"
   id="svg5656"
   version="1.1"
   inkscape:version="0.48.2 r9819"
   sodipodi:docname="sprite.svg"
   inkscape:export-filename="/Users/tristen/dev/mapbox/mapbox.js/assets/images/sprite.png"
   inkscape:export-xdpi="90"
   inkscape:export-ydpi="90">
  <defs
     id="defs5658" />
  <sodipodi:namedview
     id="base"
     pagecolor="#ffffff"
     bordercolor="#666666"
     borderopacity="1.0"
     inkscape:pageopacity="0.0"
     inkscape:pageshadow="2"
     inkscape:zoom="16"
     inkscape:cx="15.373589"
     inkscape:cy="9.2925389"
     inkscape:document-units="px"
     inkscape:current-layer="layer1"
     showgrid="true"
     inkscape:window-width="1280"
     inkscape:window-height="752"
     inkscape:window-x="0"
     inkscape:window-y="0"
     inkscape:window-maximized="1">
    <inkscape:grid
       type="xygrid"
       id="grid5664"
       empspacing="5"
       visible="true"
       enabled="true"
       snapvisiblegridlinesonly="true"
       color="#000000"
       opacity="0.0627451"
       empcolor="#000000"
       empopacity="0.1254902" />
  </sodipodi:namedview>
  <metadata
     id="metadata5661">
    <rdf:RDF>
      <cc:Work
         rdf:about="">
        <dc:format>image/svg+xml</dc:format>
        <dc:type
           rdf:resource="http://purl.org/dc/dcmitype/StillImage" />
        <dc:title></dc:title>
      </cc:Work>
    </rdf:RDF>
  </metadata>
  <g
     inkscape:label="Layer 1"
     inkscape:groupmode="layer"
     id="layer1"
     transform="translate(0,-1032.3622)">
    <path
       inkscape:connector-curvature="0"
       style="color:#000000;fill:#b5d378;fill-opacity:1;fill-rule:nonzero;stroke:none;stroke-width:1;marker:none;visibility:visible;display:inline;overflow:visible;enable-background:accumulate"
       d="m 53,1030.3622 c -5.522847,0 -10,4.4771 -10,10 0,5.5228 4.477153,10 10,10 5.522848,0 10,-4.4772 10,-10 0,-5.5229 -4.477152,-10 -10,-10 z"
       id="path6022-4"
       sodipodi:nodetypes="sssss" />
    <path
       inkscape:connector-curvature="0"
       style="opacity:0.5;color:#000000;fill:#ffffff;fill-opacity:1;fill-rule:nonzero;stroke:none;stroke-width:1;marker:none;visibility:visible;display:inline;overflow:visible;enable-background:accumulate"
       d="m 53,1033.3622 0,7 c 0,0 1,5.6667 1,6 l 1,0 c 3,0 4,-3 3,-6 -1,-3 -5,-7 -5,-7 z"
       id="path7226-7"
       sodipodi:nodetypes="cccssc" />
    <path
       sodipodi:nodetypes="cccssc"
       id="path6481"
       d="m 53,1033.3622 0,7 c 0,0 -1.125,5.6667 -1.125,6 l -0.875,0 c -3,0 -4,-3 -3,-6 1,-3 5,-7 5,-7 z"
       style="color:#000000;fill:#ffffff;fill-opacity:1;fill-rule:nonzero;stroke:none;stroke-width:1;marker:none;visibility:visible;display:inline;overflow:visible;enable-background:accumulate"
       inkscape:connector-curvature="0" />
    <g
       id="g6502"
       transform="matrix(1.5178571,0,0,1.5178571,0.51339319,-535.75454)">
      <path
         inkscape:connector-curvature="0"
         style="color:#000000;fill:#dae9bc;fill-opacity:1;fill-rule:nonzero;stroke:none;stroke-width:1;marker:none;visibility:visible;display:inline;overflow:visible;enable-background:accumulate"
         d="m 6.25,1033.7711 -1e-7,5.6823 c 0,0 1.3176472,5.8432 1.3176472,6.1765 l 0.6588235,0 c 2.6352944,0 3.9529414,-2.6353 2.6352944,-5.9294 C 9.5441175,1036.4064 6.25,1033.7711 6.25,1033.7711 z"
         id="path6485"
         sodipodi:nodetypes="cccssc" />
      <path
         inkscape:connector-curvature="0"
         style="color:#000000;fill:#b5d378;fill-opacity:1;fill-rule:nonzero;stroke:none;stroke-width:1;marker:none;visibility:visible;display:inline;overflow:visible;enable-background:accumulate"
         d="m 6.25,1033.7711 -1e-7,5.6823 c 0,0 -1.317647,5.8432 -1.317647,6.1765 l -0.6588236,0 c -2.6352942,0 -3.95292048,-2.6353 -2.6352942,-5.9294 C 2.9558822,1036.4064 6.25,1033.7711 6.25,1033.7711 z"
         id="path6500"
         sodipodi:nodetypes="cccssc" />
    </g>
  </g>
</svg>
