<?xml version="1.0" encoding="utf-8"?>
<!-- Generator: Adobe Illustrator 16.0.3, SVG Export Plug-In . SVG Version: 6.00 Build 0)  -->
<!DOCTYPE svg PUBLIC "-//W3C//DTD SVG 1.1//EN" "http://www.w3.org/Graphics/SVG/1.1/DTD/svg11.dtd">
<svg version="1.1"
	 id="svg10280" xmlns:dc="http://purl.org/dc/elements/1.1/" xmlns:cc="http://creativecommons.org/ns#" xmlns:rdf="http://www.w3.org/1999/02/22-rdf-syntax-ns#" xmlns:svg="http://www.w3.org/2000/svg" xmlns:sodipodi="http://sodipodi.sourceforge.net/DTD/sodipodi-0.dtd" xmlns:inkscape="http://www.inkscape.org/namespaces/inkscape" inkscape:version="0.48.2 r9819" sodipodi:docname="mapboxjs-icons.svg"
	 xmlns="http://www.w3.org/2000/svg" xmlns:xlink="http://www.w3.org/1999/xlink" x="0px" y="0px" width="26px" height="130px"
	 viewBox="-5.5 -6.5 26 130" enable-background="new -5.5 -6.5 26 130" xml:space="preserve">
<sodipodi:namedview  showgrid="false" inkscape:cy="39.640326" inkscape:cx="12.256027" inkscape:zoom="1" borderopacity="1.0" bordercolor="#666666" pagecolor="#ffffff" id="base" fit-margin-top="0" fit-margin-left="0" fit-margin-bottom="0" fit-margin-right="0" inkscape:window-maximized="0" inkscape:window-y="20" inkscape:window-x="194" inkscape:window-height="762" inkscape:window-width="1012" inkscape:document-units="px" inkscape:current-layer="layer1" inkscape:pageshadow="2" inkscape:pageopacity="0.0" showguides="false" inkscape:snap-nodes="false" inkscape:guide-bbox="true" inkscape:snap-bbox="true">
	<inkscape:grid  type="xygrid" id="grid10337" visible="true" enabled="true" empspacing="5" snapvisiblegridlinesonly="true">
		</inkscape:grid>
	<sodipodi:guide  id="guide10339" position="17,130" orientation="0,1"></sodipodi:guide>
	<sodipodi:guide  id="guide10341" position="5,104" orientation="0,1"></sodipodi:guide>
	<sodipodi:guide  id="guide10347" position="2,78" orientation="0,1"></sodipodi:guide>
	<sodipodi:guide  id="guide10351" position="0,52" orientation="0,1"></sodipodi:guide>
	<sodipodi:guide  id="guide10355" position="26,136" orientation="1,0"></sodipodi:guide>
	<sodipodi:guide  id="guide10375" position="13,134" orientation="1,0"></sodipodi:guide>
	<sodipodi:guide  id="guide10377" position="-4,117" orientation="0,1"></sodipodi:guide>
	<sodipodi:guide  id="guide10379" position="-6,91" orientation="0,1"></sodipodi:guide>
	<sodipodi:guide  id="guide10381" position="-2,65" orientation="0,1"></sodipodi:guide>
	<sodipodi:guide  id="guide10383" position="2,39" orientation="0,1"></sodipodi:guide>
	<sodipodi:guide  id="guide10385" position="5,26" orientation="0,1"></sodipodi:guide>
	<sodipodi:guide  id="guide10387" position="1,0" orientation="0,1"></sodipodi:guide>
	<sodipodi:guide  id="guide10389" position="-1,13" orientation="0,1"></sodipodi:guide>
	<sodipodi:guide  id="guide10391" position="0,25" orientation="1,0"></sodipodi:guide>
</sodipodi:namedview>
<g>
	<path id="path9750" inkscape:connector-curvature="0" sodipodi:nodetypes="ccscsccccsssssscccccccs" fill="#333333" d="
		M152.5,283.862v2h-1c-6,0-5,7-5,7s1-4,5-4h1v2l4-3.5L152.5,283.862z M142.5,286.862c-0.471,0-1,0.528-1,1v7c0,0.471,0.529,1,1,1h8
		c0.471,0,1-0.529,1-1v-4.5c-0.834,0-1.489,0.205-2,0.5v3h-6v-5h2c0.219-0.684,0.559-1.377,1.062-2H142.5z"/>
	<path id="path9758" inkscape:connector-curvature="0" sodipodi:nodetypes="ccccccccccccccccccccc" fill="#333333" d="M147,234.862
		c-0.277,0-0.5,0.223-0.5,0.5v2.5H144c-0.277,0-0.5,0.223-0.5,0.5v1c0,0.277,0.223,0.5,0.5,0.5h2.5v2.5c0,0.277,0.223,0.5,0.5,0.5h1
		c0.277,0,0.5-0.223,0.5-0.5v-2.5h2.5c0.277,0,0.5-0.223,0.5-0.5v-1c0-0.277-0.223-0.5-0.5-0.5h-2.5v-2.5c0-0.277-0.223-0.5-0.5-0.5
		H147z"/>
	<path id="path9760" inkscape:connector-curvature="0" sodipodi:nodetypes="cssccsscc" fill="#333333" d="M144,262.862
		c-0.277,0-0.5,0.223-0.5,0.5v1c0,0.277,0.223,0.5,0.5,0.5h7c0.277,0,0.5-0.223,0.5-0.5v-1c0-0.277-0.223-0.5-0.5-0.5H144z"/>
	<g id="g10087" transform="matrix(0.03596944,0,0,0.03596944,161.51786,304.71581)">
		<path id="path10060" inkscape:connector-curvature="0" sodipodi:nodetypes="sssscccccssccssccccccssss" fill="#FFFFFF" d="
			M-538.014,170.88c-10.154,0-18.517,8.362-18.517,18.517v296.588c0,10.154,8.362,18.516,18.517,18.516h159.859V375.348h-43.439
			v-50.391h43.439v-37.061c0-43.114,25.874-66.626,64.292-66.626c18.435,0,34.807,1.141,39.422,1.737v45.178h-26.661
			c-20.906,0-25.467,10.317-25.467,24.924v31.848h50.391l-6.951,50.391h-43.439V504.5h85.143c10.154,0,18.516-8.361,18.516-18.516
			V189.424c0-10.182-8.361-18.544-18.516-18.544H-538.014z"/>
	</g>
	<g>
		<g id="g10184">
		</g>
		<g id="layer1" transform="translate(-140,-232.36218)" inkscape:label="Layer 1" inkscape:groupmode="layer">
			
				<g id="g10182" transform="matrix(0.07002101,0,0,-0.07002101,145.9958,355.05475)" inkscape:label="twitter-bird-light-bgs copy">
				<defs>
					<rect id="SVGID_1_" x="14.482" y="168.438" width="14" height="11.377"/>
				</defs>
				<clipPath id="SVGID_2_">
					<use xlink:href="#SVGID_1_"  overflow="visible"/>
				</clipPath>
				<g id="g10186" clip-path="url(#SVGID_2_)">
					<g id="g10188">
						<defs>
							<rect id="SVGID_3_" x="14.453" y="168.623" width="14.004" height="11.413"/>
						</defs>
						<clipPath id="SVGID_4_">
							<use xlink:href="#SVGID_3_"  overflow="visible"/>
						</clipPath>
						<g id="g10194" clip-path="url(#SVGID_4_)">
							<path id="path10200" inkscape:connector-curvature="0" fill="#FFFFFF" d="M121.453,236.134
								c-7.364-3.263-15.258-5.481-23.57-6.471c8.479,5.077,14.979,13.124,18.047,22.706c-7.922-4.714-16.708-8.117-26.052-9.958
								c-7.49,7.978-18.159,12.957-29.958,12.957c-22.649,0-41.031-18.368-41.031-41.031c0-3.222,0.362-6.346,1.06-9.358
								c-34.1,1.715-64.336,18.047-84.573,42.872c-3.528-6.053-5.551-13.11-5.551-20.613c0-14.253,7.238-26.805,18.242-34.169
								c-6.722,0.223-13.054,2.064-18.577,5.132c0-0.167,0-0.334,0-0.502c0-19.888,14.142-36.471,32.914-40.25
								c-3.445-0.92-7.071-1.423-10.823-1.423c-2.636,0-5.216,0.251-7.712,0.726c5.23-16.29,20.376-28.172,38.339-28.493
								c-14.058-11.004-31.743-17.559-50.961-17.559c-3.319,0-6.583,0.195-9.791,0.558c18.158-11.632,39.72-18.424,62.899-18.424
								c75.466,0,116.734,62.523,116.734,116.748c0,1.785-0.028,3.542-0.111,5.3C108.998,220.667,115.958,227.905,121.453,236.134"
								/>
						</g>
					</g>
				</g>
			</g>
		</g>
	</g>
</g>
</svg>
