<?xml version="1.0" encoding="UTF-8" standalone="no"?>
<!-- Created with Inkscape (http://www.inkscape.org/) -->

<svg
   xmlns:dc="http://purl.org/dc/elements/1.1/"
   xmlns:cc="http://creativecommons.org/ns#"
   xmlns:rdf="http://www.w3.org/1999/02/22-rdf-syntax-ns#"
   xmlns:svg="http://www.w3.org/2000/svg"
   xmlns="http://www.w3.org/2000/svg"
   xmlns:xlink="http://www.w3.org/1999/xlink"
   xmlns:sodipodi="http://sodipodi.sourceforge.net/DTD/sodipodi-0.dtd"
   xmlns:inkscape="http://www.inkscape.org/namespaces/inkscape"
   width="160"
   height="110"
   id="svg3025"
   version="1.1"
   inkscape:version="0.48.2 r9819"
   sodipodi:docname="controls.svg"
   inkscape:export-filename="/Users/saman/work_repos/tilestream-pro/assets/images/controls.png"
   inkscape:export-xdpi="90"
   inkscape:export-ydpi="90">
  <defs
     id="defs3027">
    <linearGradient
       inkscape:collect="always"
       xlink:href="#linearGradient8897"
       id="linearGradient5282"
       gradientUnits="userSpaceOnUse"
       gradientTransform="translate(371.58396,256.79387)"
       x1="28.294357"
       y1="56.197388"
       x2="68.209686"
       y2="38.447388" />
    <linearGradient
       inkscape:collect="always"
       id="linearGradient8897">
      <stop
         style="stop-color:#000000;stop-opacity:1;"
         offset="0"
         id="stop8899" />
      <stop
         style="stop-color:#000000;stop-opacity:0;"
         offset="1"
         id="stop8901" />
    </linearGradient>
    <linearGradient
       inkscape:collect="always"
       xlink:href="#linearGradient8620"
       id="linearGradient5284"
       gradientUnits="userSpaceOnUse"
       gradientTransform="matrix(3.2371941,0,0,3.2371941,367.10957,197.54011)"
       x1="50.153175"
       y1="32.913136"
       x2="48.492641"
       y2="-1.6282308" />
    <linearGradient
       id="linearGradient8620">
      <stop
         style="stop-color:#877c9c;stop-opacity:1;"
         offset="0"
         id="stop8622" />
      <stop
         style="stop-color:#ffffff;stop-opacity:1;"
         offset="1"
         id="stop8624" />
    </linearGradient>
    <linearGradient
       inkscape:collect="always"
       xlink:href="#linearGradient8620"
       id="linearGradient5286"
       gradientUnits="userSpaceOnUse"
       gradientTransform="matrix(3.2371941,0,0,3.2371941,367.10957,191.06572)"
       x1="27.26866"
       y1="25.181087"
       x2="30.544155"
       y2="9.6247387" />
    <linearGradient
       id="linearGradient5189">
      <stop
         style="stop-color:#877c9c;stop-opacity:1;"
         offset="0"
         id="stop5191" />
      <stop
         style="stop-color:#ffffff;stop-opacity:1;"
         offset="1"
         id="stop5193" />
    </linearGradient>
    <linearGradient
       inkscape:collect="always"
       xlink:href="#linearGradient8620"
       id="linearGradient5288"
       gradientUnits="userSpaceOnUse"
       gradientTransform="matrix(3.1849715,0,0,3.277659,368.72846,190.21596)"
       x1="19.319859"
       y1="22.762878"
       x2="11.092514"
       y2="3.0399756" />
    <linearGradient
       id="linearGradient5196">
      <stop
         style="stop-color:#877c9c;stop-opacity:1;"
         offset="0"
         id="stop5198" />
      <stop
         style="stop-color:#ffffff;stop-opacity:1;"
         offset="1"
         id="stop5200" />
    </linearGradient>
    <radialGradient
       inkscape:collect="always"
       xlink:href="#linearGradient8897"
       id="radialGradient5290"
       gradientUnits="userSpaceOnUse"
       gradientTransform="matrix(1,0,0,0.3983198,0,12.812541)"
       cx="30.405592"
       cy="21.294601"
       fx="30.405592"
       fy="21.294601"
       r="23.334524" />
    <radialGradient
       inkscape:collect="always"
       xlink:href="#linearGradient8705-6"
       id="radialGradient5292"
       gradientUnits="userSpaceOnUse"
       gradientTransform="matrix(1.4789374,0,0,1.4762917,-14.36817,-4.564688)"
       cx="30.000099"
       cy="9.2453508"
       fx="30.000099"
       fy="9.2453508"
       r="19.97127" />
    <linearGradient
       id="linearGradient8705-6">
      <stop
         style="stop-color:#00c4cc;stop-opacity:1"
         offset="0"
         id="stop8707-8" />
      <stop
         style="stop-color:#00438a;stop-opacity:1"
         offset="1"
         id="stop8709-5" />
    </linearGradient>
    <radialGradient
       inkscape:collect="always"
       xlink:href="#linearGradient8713-1"
       id="radialGradient5294"
       gradientUnits="userSpaceOnUse"
       gradientTransform="matrix(3.9004126,0,0,3.4050442,353.30495,189.59361)"
       cx="30.883884"
       cy="8.4436512"
       fx="30.883884"
       fy="8.4436512"
       r="20" />
    <linearGradient
       id="linearGradient8713-1">
      <stop
         id="stop8715-3"
         offset="0"
         style="stop-color:#ffffff;stop-opacity:1" />
      <stop
         style="stop-color:#65bf31;stop-opacity:1;"
         offset="0.55000001"
         id="stop8721-1" />
      <stop
         id="stop8717-5"
         offset="1"
         style="stop-color:#ffbf80;stop-opacity:1" />
    </linearGradient>
    <clipPath
       clipPathUnits="userSpaceOnUse"
       id="clipPath4350">
      <path
         inkscape:export-ydpi="270.20001"
         inkscape:export-xdpi="270.20001"
         inkscape:export-filename="/home/aj/Projects/devseed/MapBox/logo6.png"
         d="m 50,24 a 20,20 0 1 1 -40,0 20,20 0 1 1 40,0 z"
         sodipodi:ry="20"
         sodipodi:rx="20"
         sodipodi:cy="24"
         sodipodi:cx="30"
         id="path4352"
         style="color:#000000;fill:#2e3436;fill-opacity:1;fill-rule:nonzero;stroke:none;stroke-width:1;marker:none;visibility:visible;display:inline;overflow:visible;enable-background:accumulate"
         sodipodi:type="arc"
         transform="matrix(0.5348833,0,0,0.73388145,15.433151,3.8954999)" />
    </clipPath>
    <linearGradient
       inkscape:collect="always"
       xlink:href="#linearGradient8620"
       id="linearGradient5296"
       gradientUnits="userSpaceOnUse"
       gradientTransform="matrix(3.2371941,0,0,3.2371941,367.10957,191.06572)"
       x1="13.519479"
       y1="101.49112"
       x2="23.339649"
       y2="12.831213" />
    <linearGradient
       id="linearGradient5221">
      <stop
         style="stop-color:#877c9c;stop-opacity:1;"
         offset="0"
         id="stop5223" />
      <stop
         style="stop-color:#ffffff;stop-opacity:1;"
         offset="1"
         id="stop5225" />
    </linearGradient>
    <linearGradient
       inkscape:collect="always"
       xlink:href="#linearGradient8620"
       id="linearGradient5298"
       gradientUnits="userSpaceOnUse"
       gradientTransform="matrix(3.2371941,0,0,3.2371941,367.10957,191.06572)"
       x1="47.600323"
       y1="57"
       x2="33.239143"
       y2="29.359835" />
    <linearGradient
       id="linearGradient5228">
      <stop
         style="stop-color:#877c9c;stop-opacity:1;"
         offset="0"
         id="stop5230" />
      <stop
         style="stop-color:#ffffff;stop-opacity:1;"
         offset="1"
         id="stop5232" />
    </linearGradient>
    <linearGradient
       inkscape:collect="always"
       xlink:href="#linearGradient4830"
       id="linearGradient5300"
       gradientUnits="userSpaceOnUse"
       x1="57.464714"
       y1="40.601665"
       x2="56.70274"
       y2="41.446091" />
    <linearGradient
       inkscape:collect="always"
       id="linearGradient4830">
      <stop
         style="stop-color:#000000;stop-opacity:0.50196081"
         offset="0"
         id="stop4832" />
      <stop
         style="stop-color:#000000;stop-opacity:0;"
         offset="1"
         id="stop4834" />
    </linearGradient>
    <linearGradient
       inkscape:collect="always"
       xlink:href="#linearGradient8620"
       id="linearGradient5302"
       gradientUnits="userSpaceOnUse"
       gradientTransform="matrix(3.2371941,0,0,3.2371941,366.25117,191.06572)"
       x1="57.944542"
       y1="30.622133"
       x2="27.120222"
       y2="46.942951" />
    <linearGradient
       id="linearGradient5239">
      <stop
         style="stop-color:#877c9c;stop-opacity:1;"
         offset="0"
         id="stop5241" />
      <stop
         style="stop-color:#ffffff;stop-opacity:1;"
         offset="1"
         id="stop5243" />
    </linearGradient>
    <linearGradient
       inkscape:collect="always"
       xlink:href="#linearGradient8620"
       id="linearGradient5304"
       gradientUnits="userSpaceOnUse"
       gradientTransform="matrix(3.2371941,0,0,3.2371941,373.58396,191.06572)"
       x1="61.798134"
       y1="24.684839"
       x2="50.437592"
       y2="18.453461" />
    <linearGradient
       id="linearGradient5246">
      <stop
         style="stop-color:#877c9c;stop-opacity:1;"
         offset="0"
         id="stop5248" />
      <stop
         style="stop-color:#ffffff;stop-opacity:1;"
         offset="1"
         id="stop5250" />
    </linearGradient>
    <radialGradient
       inkscape:collect="always"
       xlink:href="#linearGradient4830"
       id="radialGradient5306"
       gradientUnits="userSpaceOnUse"
       gradientTransform="matrix(0.18540932,0.09416771,-0.80648314,1.5879063,78.405844,-28.760783)"
       cx="57.064392"
       cy="40.053589"
       fx="57.064392"
       fy="40.053589"
       r="6.4867234" />
    <linearGradient
       inkscape:collect="always"
       xlink:href="#linearGradient8620"
       id="linearGradient5308"
       gradientUnits="userSpaceOnUse"
       gradientTransform="matrix(3.2371941,0,0,3.2371941,367.10957,191.06572)"
       x1="52.970566"
       y1="44.093594"
       x2="16.667185"
       y2="30.570175" />
    <linearGradient
       id="linearGradient5262">
      <stop
         style="stop-color:#877c9c;stop-opacity:1;"
         offset="0"
         id="stop5264" />
      <stop
         style="stop-color:#ffffff;stop-opacity:1;"
         offset="1"
         id="stop5266" />
    </linearGradient>
    <radialGradient
       inkscape:collect="always"
       xlink:href="#linearGradient8897"
       id="radialGradient5310"
       gradientUnits="userSpaceOnUse"
       gradientTransform="matrix(1,0,0,1.122807,0,-3.6765351)"
       cx="47.140625"
       cy="29.9375"
       fx="47.140625"
       fy="30.664671"
       r="0.890625" />
    <linearGradient
       inkscape:collect="always"
       xlink:href="#linearGradient8620"
       id="linearGradient5312"
       gradientUnits="userSpaceOnUse"
       gradientTransform="matrix(3.1172981,0,0,3.2371941,374.54311,197.54011)"
       x1="53.192703"
       y1="21.428078"
       x2="25.865448"
       y2="9.5043497" />
    <linearGradient
       id="linearGradient5276">
      <stop
         style="stop-color:#877c9c;stop-opacity:1;"
         offset="0"
         id="stop5278" />
      <stop
         style="stop-color:#ffffff;stop-opacity:1;"
         offset="1"
         id="stop5280" />
    </linearGradient>
    <linearGradient
       inkscape:collect="always"
       xlink:href="#linearGradient4145"
       id="linearGradient5314"
       gradientUnits="userSpaceOnUse"
       gradientTransform="matrix(0.62921552,0,0,0.62921552,28.999997,14.046838)"
       x1="34.286613"
       y1="29.25"
       x2="52.838013"
       y2="34.220833" />
    <linearGradient
       id="linearGradient4145">
      <stop
         style="stop-color:#ffffff;stop-opacity:1;"
         offset="0"
         id="stop4147-1" />
      <stop
         style="stop-color:#ffffff;stop-opacity:0;"
         offset="1"
         id="stop4149" />
    </linearGradient>
    <linearGradient
       inkscape:collect="always"
       xlink:href="#linearGradient8620"
       id="linearGradient5316"
       gradientUnits="userSpaceOnUse"
       gradientTransform="matrix(2.2494246,0,0,2.2494246,393.11988,433.25818)"
       x1="25.883532"
       y1="15.544005"
       x2="12.527207"
       y2="-74.109352" />
    <linearGradient
       id="linearGradient5287">
      <stop
         style="stop-color:#877c9c;stop-opacity:1;"
         offset="0"
         id="stop5289" />
      <stop
         style="stop-color:#ffffff;stop-opacity:1;"
         offset="1"
         id="stop5291" />
    </linearGradient>
  </defs>
  <sodipodi:namedview
     id="base"
     pagecolor="#ffffff"
     bordercolor="#666666"
     borderopacity="1.0"
     inkscape:pageopacity="0.0"
     inkscape:pageshadow="2"
     inkscape:zoom="1"
     inkscape:cx="58.004102"
     inkscape:cy="16.307182"
     inkscape:document-units="px"
     inkscape:current-layer="layer1"
     showgrid="false"
     inkscape:window-width="1369"
     inkscape:window-height="696"
     inkscape:window-x="59"
     inkscape:window-y="31"
     inkscape:window-maximized="0"
     showguides="true"
     inkscape:guide-bbox="true">
    <inkscape:grid
       type="xygrid"
       id="grid3033"
       empspacing="5"
       visible="true"
       enabled="true"
       snapvisiblegridlinesonly="true" />
    <sodipodi:guide
       orientation="0,1"
       position="-286,277"
       id="guide16409" />
  </sodipodi:namedview>
  <metadata
     id="metadata3030">
    <rdf:RDF>
      <cc:Work
         rdf:about="">
        <dc:format>image/svg+xml</dc:format>
        <dc:type
           rdf:resource="http://purl.org/dc/dcmitype/StillImage" />
        <dc:title></dc:title>
      </cc:Work>
    </rdf:RDF>
  </metadata>
  <g
     inkscape:label="Layer 1"
     inkscape:groupmode="layer"
     id="layer1"
     transform="translate(0,-942.3622)">
    <g
       style="font-size:24.94802475px;font-style:normal;font-variant:normal;font-weight:bold;font-stretch:normal;text-indent:0;text-align:start;text-decoration:none;line-height:150%;letter-spacing:normal;word-spacing:normal;text-transform:none;direction:ltr;block-progression:tb;writing-mode:lr-tb;text-anchor:start;color:#000000;fill:#000000;fill-opacity:0.25098039;fill-rule:nonzero;stroke:#000000;stroke-width:1.33333552;stroke-miterlimit:4;stroke-opacity:0.25098039;stroke-dasharray:none;marker:none;visibility:visible;display:inline;overflow:visible;enable-background:accumulate;font-family:PetitaBold;-inkscape-font-specification:PetitaBold Medium"
       id="g3926"
       transform="matrix(0.74999875,0,0,0.74999875,-36.499937,280.07135)" />
    <path
       style="color:#000000;fill:#202020;fill-opacity:0.87843137;fill-rule:nonzero;stroke:none;stroke-width:0.99999994;marker:none;visibility:visible;display:inline;overflow:visible;enable-background:accumulate"
       d="m 11.5,952.3622 -1.5,1.5 3.5,3.5 -3.5,3.5 1.5,1.5 3.5,-3.5 3.5,3.5 1.5,-1.5 -3.5,-3.5 3.5,-3.5 -1.5,-1.5 -3.5,3.5 z"
       id="path3007"
       inkscape:connector-curvature="0"
       sodipodi:nodetypes="ccccccccccccc" />
    <path
       id="path2461-7"
       d="m 44.5,952.3622 c -0.277,0 -0.5,0.223 -0.5,0.5 l 0,3.5 -3.5,0 c -0.277,0 -0.5,0.223 -0.5,0.5 l 0,1 c 0,0.277 0.223,0.5 0.5,0.5 l 3.5,0 0,3.5 c 0,0.277 0.223,0.5 0.5,0.5 l 1,0 c 0.277,0 0.5,-0.223 0.5,-0.5 l 0,-3.5 3.5,0 c 0.277,0 0.5,-0.223 0.5,-0.5 l 0,-1 c 0,-0.277 -0.223,-0.5 -0.5,-0.5 l -3.5,0 0,-3.5 c 0,-0.277 -0.223,-0.5 -0.5,-0.5 l -1,0 z"
       style="color:#000000;fill:#202020;fill-opacity:0.87843137;fill-rule:nonzero;stroke:none;stroke-width:0.99999994;marker:none;visibility:visible;display:inline;overflow:visible;enable-background:accumulate"
       sodipodi:nodetypes="ccccccccccccccccccccc"
       inkscape:connector-curvature="0" />
    <path
       id="path2461-7-2"
       d="m 70.5,956.3622 c -0.277,0 -0.5,0.223 -0.5,0.5 l 0,1 c 0,0.277 0.223,0.5 0.5,0.5 l 9,0 c 0.277,0 0.5,-0.223 0.5,-0.5 l 0,-1 c 0,-0.277 -0.223,-0.5 -0.5,-0.5 z"
       style="color:#000000;fill:#202020;fill-opacity:0.87843137;fill-rule:nonzero;stroke:none;stroke-width:0.99999994;marker:none;visibility:visible;display:inline;overflow:visible;enable-background:accumulate"
       sodipodi:nodetypes="ccccccccc"
       inkscape:connector-curvature="0" />
    <path
       sodipodi:nodetypes="ccccccccccc"
       inkscape:connector-curvature="0"
       id="path6407"
       d="m 110,952.3622 0,5 -2,-2 -5,5 2,2 -5,0 0,-5 2,2 5,-5 -2,-2 z"
       style="color:#000000;fill:#202020;fill-opacity:0.87843137;fill-rule:nonzero;stroke:none;stroke-width:0.99999994;marker:none;visibility:visible;display:inline;overflow:visible;enable-background:accumulate" />
    <g
       style="fill:#444444;fill-opacity:1;display:inline"
       id="g4204"
       transform="translate(0,741.31502)">
      <g
         id="g116724"
         transform="matrix(0.16334534,0,0,0.16334534,-12.577591,322.10008)"
         style="fill:#444444;fill-opacity:1;display:inline"
         inkscape:export-filename="/Users/saman/work_repos/graphics/mapbox/flyer/mapbox_flier_front_8.5x5.5.png"
         inkscape:export-xdpi="300"
         inkscape:export-ydpi="300">
        <path
           sodipodi:nodetypes="csssssccsccccsss"
           id="path116726"
           d="m 252.5,-403.39664 c -26.23353,0 -47.5,21.26647 -47.5,47.5 0,26.23353 21.26647,47.50004 47.5,47.50002 l 34.53125,-2e-5 c 2.11867,-1e-5 2.96875,-1.58176 2.96875,-3.75 l 0,-87.25 c 0,-3 -1,-4 -4,-4 z m 0,19 18.5,0 0,6.84375 0,45.3125 0,6.84375 -18.5,0 c -15.74011,0 -28.5,-14.75989 -28.5,-30.5 0,-15.74011 12.75989,-28.5 28.5,-28.5 z"
           clip-path="none"
           style="color:#000000;fill:#444444;fill-opacity:1;fill-rule:nonzero;stroke:none;stroke-width:50;marker:none;visibility:visible;display:inline;overflow:visible;enable-background:accumulate"
           inkscape:connector-curvature="0" />
        <path
           sodipodi:nodetypes="sssssccssscsssssscscscs"
           id="path116728"
           d="m 81,-441.39664 c -3,0 -4,1 -4,4 l 0,125 c 0,3 1,4 4,4 l 11.125,0 c 2.444295,0 3.545198,-0.69394 3.875,-2.5625 l 0,-105.4375 33.25,58.5 c 1.32604,2.33303 2.75,3.48718 4.75,3.5 2,0.0128 3.42396,-1.16697 4.75,-3.5 l 33.25,-58.5 0,104 c 0,3 1,4 4,4 l 11,0 c 3,0 4,-1 4,-4 l 0,-125 c 0,-3 -1,-4 -4,-4 l -17.125,0 c -2.49457,0 -4.14512,1.06903 -5.5,3.5 l -30.375,53.5 -30.4375,-53.59375 c -1.13065,-1.99082 -1.50429,-3.40625 -4.0005,-3.40625 z"
           style="color:#000000;fill:#444444;fill-opacity:1;fill-rule:nonzero;stroke:none;stroke-width:50;marker:none;visibility:visible;display:inline;overflow:visible;enable-background:accumulate"
           inkscape:connector-curvature="0" />
        <path
           sodipodi:nodetypes="sssscscsscssscsss"
           id="path116730"
           d="m 311.96875,-403.39664 c -2.20141,-3.2e-4 -2.96875,1.3125 -2.96875,3.9375 l 0,125.0625 c 0,3 0.99597,4 4.01632,3.99999 l 11.50957,0 c 2.7489,0 3.54605,-1.18066 3.54079,-3.875 L 328,-308.45914 c 6.0766,0.0365 12.586,0.0358 18.5,0.0625 26.12125,0.11774 47.5,-20.96203 47.5,-47.5 0,-26.23353 -21.26648,-47.5265 -47.5,-47.5 -11.54051,0.0117 -23.00312,0.002 -34.53125,0 z m 16.03125,19 18.5,0 c 15.74011,0 28.5,12.75989 28.5,28.5 0,15.74011 -12.75989,30.5 -28.5,30.5 l -18.5,0 z"
           clip-path="none"
           style="color:#000000;fill:#444444;fill-opacity:1;fill-rule:nonzero;stroke:none;stroke-width:50;marker:none;visibility:visible;display:inline;overflow:visible;enable-background:accumulate"
           inkscape:connector-curvature="0" />
        <path
           sodipodi:nodetypes="ssssssssss"
           inkscape:connector-curvature="0"
           style="color:#000000;fill:#444444;fill-opacity:1;fill-rule:nonzero;stroke:none;stroke-width:50;marker:none;visibility:visible;display:inline;overflow:visible;enable-background:accumulate"
           d="m 553.5,-403.39664 c 26.23353,0 47.5,21.26647 47.5,47.5 0,26.23353 -21.26647,47.5 -47.5,47.5 -26.23353,0 -47.5,-21.26647 -47.5,-47.5 0,-26.23353 21.26647,-47.5 47.5,-47.5 z m 0,19 c -15.74011,0 -28.5,12.75989 -28.5,28.5 0,15.74011 12.75989,30.5 28.5,30.5 15.74011,0 28.5,-14.75989 28.5,-30.5 0,-15.74011 -12.75989,-28.5 -28.5,-28.5 z"
           id="path116732"
           clip-path="none" />
        <path
           style="color:#000000;fill:#444444;fill-opacity:1;fill-rule:nonzero;stroke:none;stroke-width:50;marker:none;visibility:visible;display:inline;overflow:visible;enable-background:accumulate"
           d="m 412,-441.40625 c -3,0 -4,1 -4,4 l 0,125.15625 c 0,2.54936 1.57368,3.84375 4.03125,3.84375 l 34.46875,0 c 26.23353,0 47.5,-12.26647 47.5,-38.5 0,-15.08273 -7.41879,-29.0953 -22.75,-34.9375 0,0 12.47895,-7.37119 12.75,-22.5 -0.23961,-25.91569 -21.41542,-37.0625 -47.5,-37.0625 z m 15,19 9.5,0 c 15.74011,0 28.5,2.75989 28.5,18.5 0,7.50938 -3.28083,12.5053 -7.65625,15.78125 -9.30886,5.53565 -19.3433,3.71875 -30.34375,3.71875 z m 0,52 19.5,0 c 15.7401,0 28.5,7.7599 28.5,23.5 0,15.74011 -12.75989,21.5 -28.5,21.5 -6.47242,9e-5 -13.00655,0 -19.5,0 z"
           id="path116734"
           inkscape:connector-curvature="0"
           sodipodi:nodetypes="ssssssccsscssccccssccc" />
        <path
           sodipodi:nodetypes="scccsscccsscccsscccss"
           style="color:#000000;fill:#444444;fill-opacity:1;fill-rule:nonzero;stroke:none;stroke-width:2;marker:none;visibility:visible;display:inline;overflow:visible;enable-background:accumulate"
           d="m 606.8125,-403.40625 c -2.69064,0 -3.73316,1.66812 -2.25,3.625 l 29.93779,42.4716 -31.93779,45.2784 c -1.48316,1.95688 -0.44064,3.625 2.25,3.625 l 16.15625,0 c 1.67394,0 2.62104,-0.85774 3.625,-2.28125 l 21.39685,-30.3222 21.41565,30.3222 c 1.00396,1.42351 1.95106,2.28125 3.625,2.28125 l 16.15625,0 c 2.69064,0 3.73316,-1.66812 2.25,-3.625 L 657.5,-357.3125 l 29.9375,-42.46875 c 1.48316,-1.95688 0.44064,-3.625 -2.25,-3.625 l -16.15625,0 c -1.67394,0 -2.62104,0.85773 -3.625,2.28125 l -19.40511,27.50802 -19.40739,-27.50802 c -1.00396,-1.42352 -1.95106,-2.28125 -3.625,-2.28125 z"
           id="path116736"
           inkscape:connector-curvature="0" />
      </g>
    </g>
    <g
       id="g4658"
       transform="translate(1.3333146,-57.978568)">
      <g
         transform="matrix(0.68018392,0,0,0.68018392,-1.7926325,921.20216)"
         id="g4625"
         style="color:#000000;fill:#000000;fill-opacity:0.42647059;fill-rule:nonzero;stroke:none;stroke-width:1.47019064px;marker:none;visibility:visible;display:inline;overflow:visible;enable-background:accumulate">
        <g
           inkscape:export-ydpi="300"
           inkscape:export-xdpi="300"
           inkscape:export-filename="/Users/saman/work_repos/graphics/mapbox/flyer/mapbox_flier_front_8.5x5.5.png"
           style="color:#000000;fill:#000000;fill-opacity:0.42647059;fill-rule:nonzero;stroke:none;stroke-width:9.00050545px;marker:none;visibility:visible;display:inline;overflow:visible;enable-background:accumulate"
           transform="matrix(0.16334534,0,0,0.16334534,-12.577591,322.10008)"
           id="g4627">
          <path
             inkscape:connector-curvature="0"
             style="color:#000000;fill:#000000;fill-opacity:0.42647059;fill-rule:nonzero;stroke:none;stroke-width:9.00050545px;marker:none;visibility:visible;display:inline;overflow:visible;enable-background:accumulate"
             clip-path="none"
             d="m 259.66092,-403.39664 c -26.23353,0 -47.5,21.26647 -47.5,47.5 0,26.23353 21.26647,47.50004 47.5,47.50002 l 34.53125,-2e-5 c 2.11867,-1e-5 2.96875,-1.58176 2.96875,-3.75 l 0,-87.25 c 0,-3 -1,-4 -4,-4 z m 0,19 18.5,0 0,6.84375 0,45.3125 0,6.84375 -18.5,0 c -15.74011,0 -28.5,-14.75989 -28.5,-30.5 0,-15.74011 12.75989,-28.5 28.5,-28.5 z"
             id="path4629"
             sodipodi:nodetypes="csssssccsccccsss" />
          <path
             inkscape:connector-curvature="0"
             style="color:#000000;fill:#000000;fill-opacity:0.42647059;fill-rule:nonzero;stroke:none;stroke-width:9.00050545px;marker:none;visibility:visible;display:inline;overflow:visible;enable-background:accumulate"
             d="m 94.134599,-441.39664 c -3,0 -4,1 -4,4 l 0,125 c 0,3 1,4 4,4 l 11.125001,0 c 2.44429,0 3.5452,-0.69394 3.875,-2.5625 l 0,-105.4375 33.25,58.5 c 1.32604,2.33303 2.75,3.48718 4.75,3.5 2,0.0128 3.42396,-1.16697 4.75,-3.5 l 33.25,-58.5 0,104 c 0,3 1,4 4,4 l 11,0 c 3,0 4,-1 4,-4 l 0,-125 c 0,-3 -1,-4 -4,-4 l -17.125,0 c -2.49457,0 -4.14512,1.06903 -5.5,3.5 l -30.375,53.5 -30.4375,-53.59375 c -1.13065,-1.99082 -1.50429,-3.40625 -4.0005,-3.40625 z"
             id="path4631"
             sodipodi:nodetypes="sssssccssscsssssscscscs" />
          <path
             inkscape:connector-curvature="0"
             style="color:#000000;fill:#000000;fill-opacity:0.42647059;fill-rule:nonzero;stroke:none;stroke-width:9.00050545px;marker:none;visibility:visible;display:inline;overflow:visible;enable-background:accumulate"
             clip-path="none"
             d="m 313.65598,-403.39664 c -2.20141,-3.2e-4 -2.96875,1.3125 -2.96875,3.9375 l 0,125.0625 c 0,3 0.99597,4 4.01632,3.99999 l 11.50957,0 c 2.7489,0 3.54605,-1.18066 3.54079,-3.875 l -0.0667,-34.18749 c 6.0766,0.0365 12.586,0.0358 18.5,0.0625 26.12125,0.11774 47.5,-20.96203 47.5,-47.5 0,-26.23353 -21.26648,-47.5265 -47.5,-47.5 -11.54051,0.0117 -23.00312,0.002 -34.53125,0 z m 16.03125,19 18.5,0 c 15.74011,0 28.5,12.75989 28.5,28.5 0,15.74011 -12.75989,30.5 -28.5,30.5 l -18.5,0 z"
             id="path4633"
             sodipodi:nodetypes="sssscscsscssscsss" />
          <path
             clip-path="none"
             id="path4635"
             d="m 544.55565,-403.39664 c 26.23353,0 47.5,21.26647 47.5,47.5 0,26.23353 -21.26647,47.5 -47.5,47.5 -26.23353,0 -47.5,-21.26647 -47.5,-47.5 0,-26.23353 21.26647,-47.5 47.5,-47.5 z m 0,19 c -15.74011,0 -28.5,12.75989 -28.5,28.5 0,15.74011 12.75989,30.5 28.5,30.5 15.74011,0 28.5,-14.75989 28.5,-30.5 0,-15.74011 -12.75989,-28.5 -28.5,-28.5 z"
             style="color:#000000;fill:#000000;fill-opacity:0.42647059;fill-rule:nonzero;stroke:none;stroke-width:9.00050545px;marker:none;visibility:visible;display:inline;overflow:visible;enable-background:accumulate"
             inkscape:connector-curvature="0"
             sodipodi:nodetypes="ssssssssss" />
          <path
             sodipodi:nodetypes="ssssssccsscssccccssccc"
             inkscape:connector-curvature="0"
             id="path4637"
             d="m 408.45039,-441.40625 c -3,0 -4,1 -4,4 l 0,125.15625 c 0,2.54936 1.57368,3.84375 4.03125,3.84375 l 34.46875,0 c 26.23353,0 47.5,-12.26647 47.5,-38.5 0,-15.08273 -7.41879,-29.0953 -22.75,-34.9375 0,0 12.47895,-7.37119 12.75,-22.5 -0.23961,-25.91569 -21.41542,-37.0625 -47.5,-37.0625 z m 15,19 9.5,0 c 15.74011,0 28.5,2.75989 28.5,18.5 0,7.50938 -3.28083,12.5053 -7.65625,15.78125 -9.30886,5.53565 -19.3433,3.71875 -30.34375,3.71875 z m 0,52 19.5,0 c 15.7401,0 28.5,7.7599 28.5,23.5 0,15.74011 -12.75989,21.5 -28.5,21.5 -6.47242,9e-5 -13.00655,0 -19.5,0 z"
             style="color:#000000;fill:#000000;fill-opacity:0.42647059;fill-rule:nonzero;stroke:none;stroke-width:9.00050545px;marker:none;visibility:visible;display:inline;overflow:visible;enable-background:accumulate" />
          <path
             inkscape:connector-curvature="0"
             id="path4639"
             d="m 592.99973,-403.40625 c -2.69064,0 -3.73316,1.66812 -2.25,3.625 l 29.93779,42.4716 -31.93779,45.2784 c -1.48316,1.95688 -0.44064,3.625 2.25,3.625 l 16.15625,0 c 1.67394,0 2.62104,-0.85774 3.625,-2.28125 l 21.39685,-30.3222 21.41565,30.3222 c 1.00396,1.42351 1.95106,2.28125 3.625,2.28125 l 16.15625,0 c 2.69064,0 3.73316,-1.66812 2.25,-3.625 l -31.9375,-45.28125 29.9375,-42.46875 c 1.48316,-1.95688 0.44064,-3.625 -2.25,-3.625 l -16.15625,0 c -1.67394,0 -2.62104,0.85773 -3.625,2.28125 l -19.40511,27.50802 -19.40739,-27.50802 c -1.00396,-1.42352 -1.95106,-2.28125 -3.625,-2.28125 z"
             style="color:#000000;fill:#000000;fill-opacity:0.42647059;fill-rule:nonzero;stroke:none;stroke-width:9.00050545px;marker:none;visibility:visible;display:inline;overflow:visible;enable-background:accumulate"
             sodipodi:nodetypes="scccsscccsscccsscccss" />
        </g>
      </g>
      <g
         style="fill:#202020;fill-opacity:1;display:inline"
         id="g4607"
         transform="matrix(0.64438477,0,0,0.64438477,6.4010742e-8,930.15189)">
        <g
           id="g4609"
           transform="matrix(0.16334534,0,0,0.16334534,-12.577591,322.10008)"
           style="fill:#202020;fill-opacity:1;display:inline"
           inkscape:export-filename="/Users/saman/work_repos/graphics/mapbox/flyer/mapbox_flier_front_8.5x5.5.png"
           inkscape:export-xdpi="300"
           inkscape:export-ydpi="300">
          <path
             sodipodi:nodetypes="csssssccsccccsss"
             id="path4611"
             d="m 252.5,-403.39664 c -26.23353,0 -47.5,21.26647 -47.5,47.5 0,26.23353 21.26647,47.50004 47.5,47.50002 l 34.53125,-2e-5 c 2.11867,-1e-5 2.96875,-1.58176 2.96875,-3.75 l 0,-87.25 c 0,-3 -1,-4 -4,-4 z m 0,19 18.5,0 0,6.84375 0,45.3125 0,6.84375 -18.5,0 c -15.74011,0 -28.5,-14.75989 -28.5,-30.5 0,-15.74011 12.75989,-28.5 28.5,-28.5 z"
             clip-path="none"
             style="color:#000000;fill:#ffffff;fill-opacity:1;fill-rule:nonzero;stroke:none;stroke-width:50;marker:none;visibility:visible;display:inline;overflow:visible;enable-background:accumulate"
             inkscape:connector-curvature="0" />
          <path
             sodipodi:nodetypes="sssssccssscsssssscscscs"
             id="path4613"
             d="m 81,-441.39664 c -3,0 -4,1 -4,4 l 0,125 c 0,3 1,4 4,4 l 11.125,0 c 2.444295,0 3.545198,-0.69394 3.875,-2.5625 l 0,-105.4375 33.25,58.5 c 1.32604,2.33303 2.75,3.48718 4.75,3.5 2,0.0128 3.42396,-1.16697 4.75,-3.5 l 33.25,-58.5 0,104 c 0,3 1,4 4,4 l 11,0 c 3,0 4,-1 4,-4 l 0,-125 c 0,-3 -1,-4 -4,-4 l -17.125,0 c -2.49457,0 -4.14512,1.06903 -5.5,3.5 l -30.375,53.5 -30.4375,-53.59375 c -1.13065,-1.99082 -1.50429,-3.40625 -4.0005,-3.40625 z"
             style="color:#000000;fill:#ffffff;fill-opacity:1;fill-rule:nonzero;stroke:none;stroke-width:50;marker:none;visibility:visible;display:inline;overflow:visible;enable-background:accumulate"
             inkscape:connector-curvature="0" />
          <path
             sodipodi:nodetypes="sssscscsscssscsss"
             id="path4615"
             d="m 311.96875,-403.39664 c -2.20141,-3.2e-4 -2.96875,1.3125 -2.96875,3.9375 l 0,125.0625 c 0,3 0.99597,4 4.01632,3.99999 l 11.50957,0 c 2.7489,0 3.54605,-1.18066 3.54079,-3.875 L 328,-308.45914 c 6.0766,0.0365 12.586,0.0358 18.5,0.0625 26.12125,0.11774 47.5,-20.96203 47.5,-47.5 0,-26.23353 -21.26648,-47.5265 -47.5,-47.5 -11.54051,0.0117 -23.00312,0.002 -34.53125,0 z m 16.03125,19 18.5,0 c 15.74011,0 28.5,12.75989 28.5,28.5 0,15.74011 -12.75989,30.5 -28.5,30.5 l -18.5,0 z"
             clip-path="none"
             style="color:#000000;fill:#ffffff;fill-opacity:1;fill-rule:nonzero;stroke:none;stroke-width:50;marker:none;visibility:visible;display:inline;overflow:visible;enable-background:accumulate"
             inkscape:connector-curvature="0" />
          <path
             sodipodi:nodetypes="ssssssssss"
             inkscape:connector-curvature="0"
             style="color:#000000;fill:#ffffff;fill-opacity:1;fill-rule:nonzero;stroke:none;stroke-width:50;marker:none;visibility:visible;display:inline;overflow:visible;enable-background:accumulate"
             d="m 553.5,-403.39664 c 26.23353,0 47.5,21.26647 47.5,47.5 0,26.23353 -21.26647,47.5 -47.5,47.5 -26.23353,0 -47.5,-21.26647 -47.5,-47.5 0,-26.23353 21.26647,-47.5 47.5,-47.5 z m 0,19 c -15.74011,0 -28.5,12.75989 -28.5,28.5 0,15.74011 12.75989,30.5 28.5,30.5 15.74011,0 28.5,-14.75989 28.5,-30.5 0,-15.74011 -12.75989,-28.5 -28.5,-28.5 z"
             id="path4617"
             clip-path="none" />
          <path
             style="color:#000000;fill:#ffffff;fill-opacity:1;fill-rule:nonzero;stroke:none;stroke-width:50;marker:none;visibility:visible;display:inline;overflow:visible;enable-background:accumulate"
             d="m 412,-441.40625 c -3,0 -4,1 -4,4 l 0,125.15625 c 0,2.54936 1.57368,3.84375 4.03125,3.84375 l 34.46875,0 c 26.23353,0 47.5,-12.26647 47.5,-38.5 0,-15.08273 -7.41879,-29.0953 -22.75,-34.9375 0,0 12.47895,-7.37119 12.75,-22.5 -0.23961,-25.91569 -21.41542,-37.0625 -47.5,-37.0625 z m 15,19 9.5,0 c 15.74011,0 28.5,2.75989 28.5,18.5 0,7.50938 -3.28083,12.5053 -7.65625,15.78125 -9.30886,5.53565 -19.3433,3.71875 -30.34375,3.71875 z m 0,52 19.5,0 c 15.7401,0 28.5,7.7599 28.5,23.5 0,15.74011 -12.75989,21.5 -28.5,21.5 -6.47242,9e-5 -13.00655,0 -19.5,0 z"
             id="path4619"
             inkscape:connector-curvature="0"
             sodipodi:nodetypes="ssssssccsscssccccssccc" />
          <path
             sodipodi:nodetypes="scccsscccsscccsscccss"
             style="color:#000000;fill:#ffffff;fill-opacity:1;fill-rule:nonzero;stroke:none;stroke-width:2;marker:none;visibility:visible;display:inline;overflow:visible;enable-background:accumulate"
             d="m 606.8125,-403.40625 c -2.69064,0 -3.73316,1.66812 -2.25,3.625 l 29.93779,42.4716 -31.93779,45.2784 c -1.48316,1.95688 -0.44064,3.625 2.25,3.625 l 16.15625,0 c 1.67394,0 2.62104,-0.85774 3.625,-2.28125 l 21.39685,-30.3222 21.41565,30.3222 c 1.00396,1.42351 1.95106,2.28125 3.625,2.28125 l 16.15625,0 c 2.69064,0 3.73316,-1.66812 2.25,-3.625 L 657.5,-357.3125 l 29.9375,-42.46875 c 1.48316,-1.95688 0.44064,-3.625 -2.25,-3.625 l -16.15625,0 c -1.67394,0 -2.62104,0.85773 -3.625,2.28125 l -19.40511,27.50802 -19.40739,-27.50802 c -1.00396,-1.42352 -1.95106,-2.28125 -3.625,-2.28125 z"
             id="path4621"
             inkscape:connector-curvature="0" />
        </g>
      </g>
    </g>
  </g>
</svg>
